<svg xmlns="http://www.w3.org/2000/svg" width="51" height="50" viewBox="0 0 51 50">
    <g fill="none">
        <path fill="#8DC351" d="M25.133.341C11.426.341.314 11.453.314 25.161c0 13.706 11.112 24.818 24.819 24.818 13.707 0 24.818-11.112 24.818-24.819C49.951 11.453 38.84.341 25.133.341z" transform="rotate(-16 24.442 22.73)"/>
        <path fill="#FFF" d="M23.186 8.987v4.909h2.333v-4.91h3.063v4.969c2.284.141 3.984.576 5.467 1.673 1.919 1.417 1.818 3.878 1.775 4.465-.043.587-.3 1.718-.816 2.447-.515.73-1.774 1.46-1.774 1.46s1.488.315 2.533 1.103c1.044.787 1.818 2.175 1.774 4.208-.042 2.032-.457 4.05-2.303 5.339-1.847 1.288-3.822 1.517-4.695 1.631-.43.057-1.169.117-1.96.163v4.976h-3.064v-4.895h-2.332v4.895h-3.063v-4.895h-6.026l.63-3.68h1.831c.616 0 .873-.056 1.13-.3.258-.243.316-.615.316-.916V18.955c0-.794-.065-1.009-.43-1.417-.365-.408-1.223-.462-1.707-.462h-1.77v-3.18h6.025v-4.91h3.063zm0 17.332v6.57s2.032.043 3.393-.058c1.359-.1 2.762-.443 3.463-.83.7-.386 1.546-.988 1.546-2.49 0-1.503-1.003-2.133-1.575-2.419-.572-.286-1.846-.672-3.363-.773-1.518-.1-3.464 0-3.464 0zm0-8.96v5.911s1.431.043 2.548 0c1.116-.043 2.304-.3 3.162-.773.86-.472 1.346-1.216 1.318-2.332-.03-1.117-.773-2.061-2.033-2.448-1.26-.387-2.103-.415-3.063-.43-.959-.014-1.932.072-1.932.072z" transform="rotate(-16 24.442 22.73)"/>
    </g>
</svg>
