<svg xmlns="http://www.w3.org/2000/svg" width="50" height="50" viewBox="0 0 50 50">
    <g fill="none">
        <path fill="#FFB11A" d="M24.981 0C11.185 0 0 11.184 0 24.981c0 13.797 11.185 24.982 24.981 24.982 13.797 0 24.981-11.185 24.981-24.982C49.962 11.184 38.778 0 24.982 0z"/>
        <path fill="#FFF" d="M23.022 8.702v4.941h2.348V8.702h3.083v5c2.299.143 4.01.58 5.503 1.684 1.931 1.427 1.83 3.904 1.786 4.495-.042.59-.302 1.73-.82 2.463-.519.735-1.787 1.47-1.787 1.47l.036.008c.233.054 1.558.381 2.514 1.102 1.051.792 1.83 2.19 1.786 4.235-.042 2.046-.46 4.077-2.318 5.374-1.86 1.297-3.847 1.528-4.726 1.642-.434.057-1.177.117-1.973.164v5.009H25.37V36.42h-2.348v4.928H19.94V36.42h-6.065l.634-3.703h1.844c.62 0 .878-.057 1.138-.302.259-.245.316-.62.316-.923V18.735c0-.799-.064-1.015-.432-1.425-.367-.412-1.231-.466-1.718-.466h-1.782v-3.2h6.065V8.701h3.083zm0 17.446v6.612s2.045.044 3.415-.057c1.367-.101 2.78-.447 3.485-.836.706-.389 1.556-.994 1.556-2.506 0-1.513-1.008-2.147-1.585-2.435-.576-.289-1.858-.677-3.385-.778-1.527-.101-3.486 0-3.486 0zm0-9.019v5.95s1.44.043 2.564 0 2.32-.302 3.183-.778c.865-.475 1.355-1.224 1.326-2.348-.03-1.124-.778-2.074-2.045-2.464-1.268-.389-2.118-.418-3.083-.432-.966-.014-1.945.072-1.945.072z"/>
    </g>
</svg>
