<svg xmlns="http://www.w3.org/2000/svg" width="25" height="25" viewBox="0 0 25 25">
    <path fill="#4CCB83" d="M12.49 0c6.899 0 12.491 5.592 12.491 12.49 0 6.899-5.592 12.491-12.49 12.491C5.592 24.981 0 19.39 0 12.491 0 5.592 5.592 0 12.49 0zm.47 5h-.953v1.271c-.485.033-.954.13-1.406.288-.453.16-.851.386-1.196.677-.345.292-.622.652-.832 1.08-.21.43-.315.925-.315 1.486 0 .55.092 1.01.275 1.378.183.369.428.676.735.924s.654.445 1.042.594c.388.149.78.278 1.18.388.107.022.207.047.298.074.092.027.165.052.219.074v3.45c-.496-.1-.91-.331-1.244-.694-.335-.363-.496-.858-.485-1.485H8c.108 1.298.501 2.283 1.18 2.954.679.671 1.62 1.05 2.828 1.138V20h.953v-1.403c.807-.054 1.47-.22 1.987-.494.517-.276.93-.589 1.236-.94.307-.353.52-.713.638-1.082.119-.368.178-.674.178-.916 0-.275-.02-.588-.057-.94-.037-.352-.158-.704-.363-1.056-.205-.352-.522-.69-.953-1.015-.431-.325-1.045-.597-1.842-.817-.152-.044-.294-.083-.429-.116l-.396-.099v-2.92c.367 0 .679.154.937.462.26.308.393.682.405 1.122h2.294c-.032-.572-.151-1.067-.356-1.485-.205-.418-.468-.768-.792-1.048-.322-.28-.697-.5-1.122-.66-.426-.16-.882-.267-1.366-.322V5zm0 8.515c.635.176 1.085.371 1.35.585.263.216.395.537.395.966 0 .264-.054.493-.161.685-.108.192-.245.355-.413.487-.166.131-.355.233-.565.305-.21.072-.412.118-.606.14zm-.953-5.314v2.69c-.518-.121-.89-.28-1.116-.479-.226-.198-.339-.478-.339-.84 0-.232.04-.433.122-.604.08-.17.19-.313.33-.428.14-.116.296-.201.47-.256.172-.055.35-.083.533-.083z"/>
</svg>
